<svg width="24" height="24" viewBox="0 0 24 24" fill="none" xmlns="http://www.w3.org/2000/svg">
<path d="M14.8686 5.49456H5.57955C4.70793 5.49456 4 6.20249 4 7.07411V20.4021C4 21.2737 4.70793 21.9816 5.57955 21.9816H14.8686C15.7402 21.9816 16.4482 21.2737 16.4482 20.4021V7.07411C16.4441 6.20249 15.7362 5.49456 14.8686 5.49456ZM15.3392 20.398C15.3392 20.6599 15.1264 20.8727 14.8645 20.8727H5.57546C5.31357 20.8727 5.10078 20.6599 5.10078 20.398V7.07411C5.10078 6.81222 5.31357 6.59943 5.57546 6.59943H14.8645C15.1264 6.59943 15.3392 6.81222 15.3392 7.07411V20.398Z" fill="#267AF6" stroke="#267AF6" stroke-width="0.5"/>
<path d="M18.4214 2H9.13229C8.26067 2 7.55273 2.70793 7.55273 3.57955C7.55273 3.88646 7.79826 4.13199 8.10517 4.13199C8.41208 4.13199 8.6576 3.88646 8.6576 3.57955C8.6576 3.31766 8.87039 3.10487 9.13229 3.10487H18.4214C18.6833 3.10487 18.896 3.31766 18.896 3.57955V16.9075C18.896 17.1694 18.6833 17.3822 18.4214 17.3822C18.1145 17.3822 17.8689 17.6277 17.8689 17.9347C17.8689 18.2416 18.1145 18.4871 18.4214 18.4871C19.293 18.4871 20.0009 17.7792 20.0009 16.9075V3.57955C20.0009 2.70793 19.293 2 18.4214 2Z" fill="#267AF6" stroke="#267AF6" stroke-width="0.5"/>
<path d="M10.125 10.125V16.125" stroke="#267AF6" stroke-width="1.2" stroke-linecap="round" stroke-linejoin="round"/>
<path d="M13.125 13.125H7.125" stroke="#267AF6" stroke-width="1.2" stroke-linecap="round" stroke-linejoin="round"/>
</svg>
