<svg width="24" height="24" viewBox="0 0 24 24" fill="none" xmlns="http://www.w3.org/2000/svg">
<g clip-path="url(#clip0_466_12228)">
<path d="M10.1973 12.906C10.5864 13.4262 11.0828 13.8566 11.6528 14.1681C12.2229 14.4795 12.8533 14.6647 13.5012 14.7111C14.1491 14.7575 14.7995 14.664 15.4081 14.437C16.0167 14.21 16.5694 13.8547 17.0287 13.3953L19.7467 10.6772C20.5719 9.82283 21.0285 8.67852 21.0182 7.49074C21.0079 6.30296 20.5314 5.16676 19.6915 4.32684C18.8516 3.48693 17.7154 3.0105 16.5276 3.00018C15.3399 2.98986 14.1955 3.44647 13.3412 4.27166L11.7828 5.82095" stroke="#267AF6" stroke-width="2" stroke-linecap="round" stroke-linejoin="round"/>
<path d="M13.8211 11.094C13.432 10.5738 12.9356 10.1434 12.3655 9.83194C11.7955 9.52049 11.1651 9.33528 10.5172 9.28888C9.86923 9.24248 9.21889 9.33596 8.61027 9.563C8.00164 9.79003 7.44896 10.1453 6.98971 10.6047L4.27165 13.3228C3.44646 14.1772 2.98985 15.3215 3.00017 16.5093C3.01049 17.697 3.48692 18.8332 4.32684 19.6732C5.16675 20.5131 6.30296 20.9895 7.49073 20.9998C8.67851 21.0101 9.82282 20.5535 10.6772 19.7283L12.2265 18.179" stroke="#267AF6" stroke-width="2" stroke-linecap="round" stroke-linejoin="round"/>
</g>
<defs>
<clipPath id="clip0_466_12228">
<rect width="24" height="24" fill="white"/>
</clipPath>
</defs>
</svg>
