<svg width="22" height="19" viewBox="0 0 22 19" fill="none" xmlns="http://www.w3.org/2000/svg">
<path d="M1.69219 13.5375V5.92098L6.35418 5.92267C6.47848 5.92287 6.6013 5.89568 6.7139 5.84304C6.8265 5.79039 6.92612 5.71358 7.00567 5.61807L8.85862 3.38438H16.9185C17.3673 3.38438 17.7977 3.56267 18.1151 3.88001C18.4324 4.19736 18.6107 4.62778 18.6107 5.07657V8.61325C18.9576 8.7334 19.2842 8.93477 19.5617 9.21229L20.3029 9.95178V5.07657C20.3029 4.17898 19.9463 3.31815 19.3116 2.68345C18.677 2.04876 17.8161 1.69219 16.9185 1.69219H8.75878L6.88383 0.186141C6.73361 0.0656211 6.54677 -4.24373e-05 6.35418 2.0577e-08H3.38438C2.48679 2.0577e-08 1.62596 0.356568 0.991262 0.991262C0.356568 1.62596 0 2.48679 0 3.38438V13.5375C0 14.4351 0.356568 15.296 0.991262 15.9306C1.62596 16.5653 2.48679 16.9219 3.38438 16.9219H8.25282L7.51502 16.1875C7.24471 15.9176 7.03879 15.5902 6.9126 15.2297H3.38438C2.93559 15.2297 2.50517 15.0514 2.18782 14.7341C1.87047 14.4167 1.69219 13.9863 1.69219 13.5375ZM3.38438 1.69219H6.05635L7.26119 2.66012L5.9582 4.23048L1.69219 4.22879V3.38438C1.69219 2.93559 1.87047 2.50517 2.18782 2.18782C2.50517 1.87048 2.93559 1.69219 3.38438 1.69219Z" fill="#267AF6"/>
<path d="M13.2937 11.6068C13.448 11.4474 13.5336 11.2338 13.532 11.012C13.5304 10.7901 13.4417 10.5777 13.2851 10.4206C13.1284 10.2635 12.9163 10.1743 12.6945 10.172C12.4726 10.1698 12.2588 10.2548 12.099 10.4087L8.70951 13.7897C8.63072 13.8683 8.5682 13.9617 8.52555 14.0644C8.48289 14.1672 8.46094 14.2774 8.46094 14.3887C8.46094 14.5 8.48289 14.6102 8.52555 14.713C8.5682 14.8158 8.63072 14.9092 8.70951 14.9878L12.099 18.3671C12.1771 18.4478 12.2706 18.5121 12.3739 18.5563C12.4772 18.6005 12.5882 18.6236 12.7006 18.6245C12.8129 18.6253 12.9243 18.6037 13.0282 18.561C13.1321 18.5183 13.2265 18.4554 13.3058 18.3758C13.3851 18.2963 13.4478 18.2017 13.4902 18.0977C13.5326 17.9936 13.5539 17.8822 13.5527 17.7699C13.5516 17.6575 13.5281 17.5465 13.4836 17.4434C13.4392 17.3402 13.3746 17.2469 13.2937 17.169L11.3544 15.2331H19.1114L17.1722 17.169C17.0912 17.2469 17.0267 17.3402 16.9822 17.4434C16.9377 17.5465 16.9142 17.6575 16.9131 17.7699C16.9119 17.8822 16.9332 17.9936 16.9756 18.0977C17.018 18.2017 17.0807 18.2963 17.16 18.3758C17.2393 18.4554 17.3337 18.5183 17.4376 18.561C17.5415 18.6037 17.6529 18.6253 17.7653 18.6245C17.8776 18.6236 17.9887 18.6005 18.0919 18.5563C18.1952 18.5121 18.2887 18.4478 18.3668 18.3671L21.7512 14.9895C21.83 14.9109 21.8925 14.8175 21.9352 14.7147C21.9778 14.6119 21.9998 14.5017 21.9998 14.3904C21.9998 14.2791 21.9778 14.1689 21.9352 14.0661C21.8925 13.9634 21.83 13.87 21.7512 13.7914L18.3668 10.4087C18.2073 10.2546 17.9935 10.1693 17.7717 10.1712C17.5499 10.1731 17.3376 10.2621 17.1808 10.419C17.0239 10.5759 16.9349 10.7881 16.933 11.0099C16.9311 11.2318 17.0163 11.4455 17.1705 11.6051L19.108 13.5409H11.3544L13.2937 11.6085V11.6068Z" fill="#267AF6"/>
</svg>
