<svg width="24" height="24" viewBox="0 0 24 24" fill="none" xmlns="http://www.w3.org/2000/svg">
<path d="M7.66962 11.3383H4.33361C4.14946 11.3383 4 11.4878 4 11.6719V19.6783C4 19.8624 4.14946 20.0119 4.33361 20.0119H7.66962C7.85442 20.0119 8.00323 19.8624 8.00323 19.6783V11.6719C8.0032 11.4877 7.85377 11.3383 7.66962 11.3383ZM7.33601 19.3447H4.66722V12.0055H7.33601V19.3447Z" fill="#267AF6" stroke="#267AF6" stroke-width="0.6"/>
<path d="M13.6618 4H10.3258C10.1417 4 9.99219 4.14946 9.99219 4.33361V19.6792C9.99219 19.8634 10.1417 20.0128 10.3258 20.0128H13.6618C13.846 20.0128 13.9954 19.8634 13.9954 19.6792V4.33361C13.9954 4.14946 13.846 4 13.6618 4ZM13.3282 19.3456H10.6594V4.66719H13.3282V19.3456Z" fill="#267AF6" stroke="#267AF6" stroke-width="0.6"/>
<path d="M19.6657 7.33517H16.3297C16.1456 7.33517 15.9961 7.48464 15.9961 7.66878V19.6784C15.9961 19.8625 16.1456 20.012 16.3297 20.012H19.6657C19.8499 20.012 19.9993 19.8625 19.9993 19.6784V7.66878C19.9993 7.48461 19.8499 7.33517 19.6657 7.33517ZM19.3321 19.3448H16.6633V8.00236H19.3321V19.3448Z" fill="#267AF6" stroke="#267AF6" stroke-width="0.6"/>
</svg>
