<svg width="18" height="20" viewBox="0 0 18 20" fill="none" xmlns="http://www.w3.org/2000/svg">
<path d="M14.8496 6.08693H3.1502C3.02362 6.07617 2.8982 6.11799 2.80336 6.20252C2.71012 6.2921 2.66692 6.42177 2.68777 6.54935L3.89006 17.0233C4.03106 18.1781 5.01575 19.0435 6.17906 19.0349H12.0056C13.2017 19.0519 14.2092 18.1452 14.3178 16.954L15.312 6.50311C15.3181 6.39101 15.2761 6.28161 15.1964 6.20252C15.1016 6.11799 14.9762 6.07617 14.8496 6.08693ZM13.393 16.9077C13.3203 17.6118 12.7129 18.1382 12.0057 18.11H6.1791C5.48455 18.1382 4.88754 17.6221 4.81492 16.9308L3.65887 7.01178H14.3409L13.393 16.9077Z" fill="#808083" stroke="#808083" stroke-width="0.5"/>
<path d="M16.5376 3.08118H11.7745V2.34126C11.8002 1.62662 11.2417 1.02651 10.5271 1.00085C10.5036 1 10.4801 0.999784 10.4567 1.00023H7.54334C6.82835 0.986994 6.23807 1.55586 6.22483 2.27085C6.22439 2.29431 6.22461 2.31781 6.22545 2.34126V3.08113H1.46243C1.20703 3.08113 1 3.28816 1 3.54356C1 3.79896 1.20703 4.00599 1.46243 4.00599H16.5376C16.793 4.00599 17 3.79896 17 3.54356C17 3.28816 16.7929 3.08118 16.5376 3.08118ZM10.8497 2.34126V3.08113H7.15026V2.34126C7.1242 2.13862 7.26737 1.95323 7.47001 1.92716C7.49431 1.92402 7.51887 1.92336 7.5433 1.92508H10.4566C10.6604 1.91066 10.8373 2.06413 10.8518 2.26798C10.8535 2.29241 10.8528 2.31697 10.8497 2.34126Z" fill="#808083" stroke="#808083" stroke-width="0.5"/>
</svg>
